<svg width="100" height="100" viewBox="0 0 100 100" fill="none" xmlns="http://www.w3.org/2000/svg">
<path d="M54.0441 74.2926L51.2076 68.4558C50.522 67.0449 51.5232 65.3878 53.0622 65.3878H72.4078C83.9591 65.3878 88.6011 59.8164 88.6011 50C88.6011 34.1491 74.1099 34.2731 64.6456 34.5368C63.0513 34.5812 62.0565 36.3794 62.8529 37.7944L70.6171 51.5934C71.413 53.0084 70.4161 54.7755 68.8213 54.7755H62.2783C61.5275 54.7755 60.8353 54.3596 60.469 53.6884L46.2826 27.6884C45.5107 26.2736 46.5094 24.5306 48.0919 24.5306H72.4078C92.5202 24.5306 99.4819 40.1837 99.4819 50C99.4819 61.4082 96.3731 74.1429 76.0177 75.4694H55.8995C55.113 75.4694 54.3943 75.0136 54.0441 74.2926Z" fill="#3A72EC" stroke="#3A72EC" stroke-width="0.618807"/>
<path d="M3.54369 75.4694H9.68588C10.4254 75.4694 11.1089 75.0658 11.4795 74.4104L31.8867 38.3127C32.6846 36.9013 34.6742 36.9005 35.4732 38.3113L48.1057 60.6159C48.4764 61.2705 49.1595 61.6735 49.8985 61.6735H56.5321C58.1238 61.6735 59.1212 59.913 58.3316 58.498L39.9749 25.6001C39.6059 24.9388 38.9192 24.5306 38.1755 24.5306H29.1914C28.4426 24.5306 27.7521 24.9442 27.385 25.6125L1.73732 72.3064C0.960193 73.7213 1.95856 75.4694 3.54369 75.4694Z" fill="#3A72EC" stroke="#3A72EC" stroke-width="0.618807"/>
<path d="M25.8746 75.4694H41.5239C43.1113 75.4694 44.1107 73.7197 43.3268 72.3061C40.1668 66.6071 35.9366 59.0291 34.3303 56.3211C33.9464 55.6738 33.4507 55.7097 33.0801 56.3651L24.081 72.2835C23.281 73.6984 24.2781 75.4694 25.8746 75.4694Z" fill="#3A72EC" stroke="#3A72EC" stroke-width="0.618807"/>
</svg>
